<svg width="33" height="24" viewBox="0 0 33 24" fill="none" xmlns="http://www.w3.org/2000/svg">
<path d="M27.6166 22.4498C27.6166 23.2169 26.9933 23.8402 26.2261 23.8402L5.94523 23.8402C5.1781 23.8402 4.60276 23.2169 4.60276 22.4498L4.60276 20.5799C4.60276 19.8128 3.97947 19.2375 3.21234 19.2375L1.34247 19.2375C0.575344 19.2375 -6.38806e-07 18.6142 -6.05274e-07 17.8471L-1.21153e-07 6.77166C-8.7621e-08 6.00453 0.575345 5.42919 1.34247 5.42919L3.21234 5.42919C3.97947 5.42919 4.60276 4.8059 4.60276 4.03877L4.60276 2.1689C4.60276 1.40177 5.17811 0.826428 5.94523 0.826428L26.2261 0.826429C26.9933 0.826429 27.6166 1.40177 27.6166 2.1689L27.6166 4.03877C27.6166 4.8059 28.1919 5.42919 28.959 5.42919L30.8289 5.42919C31.596 5.42919 32.2193 6.00453 32.2193 6.77166L32.2193 17.8471C32.2193 18.6142 31.596 19.2375 30.8289 19.2375L28.959 19.2375C28.1919 19.2375 27.6166 19.8128 27.6166 20.5799L27.6166 22.4498ZM5.94523 19.2375L26.2261 19.2375C26.9933 19.2375 27.6166 18.6142 27.6166 17.8471L27.6166 6.77166C27.6166 6.00453 26.9933 5.42919 26.2261 5.42919L5.94523 5.42919C5.17811 5.42919 4.60276 6.00453 4.60276 6.77166L4.60276 17.8471C4.60276 18.6142 5.1781 19.2375 5.94523 19.2375Z" fill="#F0EBE5"/>
</svg>
