<svg width="405" height="185" viewBox="0 0 405 185" fill="none" xmlns="http://www.w3.org/2000/svg">
<g clip-path="url(#clip0_3637_220)">
<path d="M403.999 172.959V9.96825C403.999 8.88122 403.118 8 402.031 8H61.8272C61.2981 8 60.7914 7.78702 60.4212 7.4091L54.7216 1.5909C54.3514 1.21298 53.8446 1 53.3156 1H2.96825C1.88122 1 1 1.88121 1 2.96825V181.587C1 182.674 1.88123 183.555 2.96827 183.555H394.266C394.824 183.555 395.355 183.318 395.729 182.904L403.494 174.275C403.819 173.914 403.999 173.445 403.999 172.959Z" fill="url(#paint0_linear_3637_220)"/>
<path d="M403.999 172.959V9.96825C403.999 8.88122 403.118 8 402.031 8H61.8272C61.2981 8 60.7914 7.78702 60.4212 7.4091L54.7216 1.5909C54.3514 1.21298 53.8446 1 53.3156 1H2.96825C1.88122 1 1 1.88121 1 2.96825V181.587C1 182.674 1.88123 183.555 2.96827 183.555H394.266C394.824 183.555 395.355 183.318 395.729 182.904L403.494 174.275C403.819 173.914 403.999 173.445 403.999 172.959Z" fill="url(#paint1_linear_3637_220)" stroke="#575558"/>
<path d="M1 2.65796V182.342C1 183.258 1.74229 184 2.65796 184H12.342C13.2577 184 14 183.258 14 182.342V153.198C14 152.761 13.8277 152.342 13.5206 152.032L12.9794 151.485C12.6723 151.174 12.5 150.755 12.5 150.318V38.0387C12.5 37.6886 12.6108 37.3474 12.8167 37.0642L13.6833 35.8713C13.8892 35.5881 14 35.2469 14 34.8968V1.57249C14 1.25631 13.7437 1 13.4275 1H10.107H9.53455H2.65796C1.74229 1 1 1.7423 1 2.65796Z" fill="#575558" fill-opacity="0.3" stroke="#575558"/>
</g>
<defs>
<linearGradient id="paint0_linear_3637_220" x1="202.5" y1="1" x2="202.5" y2="183.555" gradientUnits="userSpaceOnUse">
<stop stop-color="#15151C" stop-opacity="0.9"/>
<stop offset="1" stop-color="#15151C" stop-opacity="0.7"/>
</linearGradient>
<linearGradient id="paint1_linear_3637_220" x1="202.5" y1="1" x2="202.5" y2="183.555" gradientUnits="userSpaceOnUse">
<stop stop-color="#15151C"/>
<stop offset="1" stop-color="#15151C"/>
</linearGradient>
<clipPath id="clip0_3637_220">
<rect width="405" height="185" fill="white"/>
</clipPath>
</defs>
</svg>
