<svg width="1920" height="1942" viewBox="0 0 1920 1942" fill="none" xmlns="http://www.w3.org/2000/svg">
<path d="M0.5 105.865V1488.87C0.5 1498.26 8.1112 1505.87 17.5 1505.87H1902.5C1911.89 1505.87 1919.5 1498.26 1919.5 1488.87V105.865C1919.5 96.4764 1911.89 88.8653 1902.5 88.8653H1873.5C1864.11 88.8653 1856.5 81.2541 1856.5 71.8653V18C1856.5 8.61116 1848.89 1 1839.5 1H80.5C71.1112 1 63.5 8.61117 63.5 18V71.8653C63.5 81.2541 55.8888 88.8653 46.5 88.8653H17.5C8.11116 88.8653 0.5 96.4764 0.5 105.865Z" fill="#575558" stroke="#575558"/>
<rect y="1317.76" width="1920" height="624.241" fill="#575558"/>
</svg>
