<svg width="67" height="11" viewBox="0 0 67 11" fill="none" xmlns="http://www.w3.org/2000/svg">
<path d="M66.8607 9.91476C64.7793 9.91476 64.7793 1 62.6819 1C60.6005 1 60.6005 9.91476 58.5031 9.91476C56.4217 9.91476 56.4217 1 54.3243 1C52.2429 1 52.2429 9.91476 50.1455 9.91476C48.0641 9.91476 48.0641 1 45.9667 1C43.8853 1 43.8853 9.91476 41.7879 9.91476C39.7065 9.91476 39.7065 1 37.6091 1C35.5277 1 35.5277 9.91476 33.4303 9.91476C31.3489 9.91476 31.3489 1 29.2515 1C27.1702 1 27.1702 9.91476 25.0728 9.91476C22.9914 9.91476 22.9914 1 20.894 1C18.8126 1 18.8126 9.91476 16.7152 9.91476C14.6338 9.91476 14.6338 1 12.5364 1C10.455 1 10.455 9.91476 8.35758 9.91476C6.27619 9.91476 6.27619 1 4.17879 1C2.0974 1 2.0974 9.91476 0 9.91476" stroke="#F0EBE5" stroke-width="0.5" stroke-miterlimit="10"/>
</svg>
